<?xml version="1.0" encoding="UTF-8"?>
<!DOCTYPE svg PUBLIC "-//W3C//DTD SVG 1.1//EN" "http://www.w3.org/Graphics/SVG/1.1/DTD/svg11.dtd">
<!-- Creator: CorelDRAW 2020 (64-Bit) -->
<svg xmlns="http://www.w3.org/2000/svg" xml:space="preserve" width="5.2916mm" height="5.3823mm" version="1.1" style="shape-rendering:geometricPrecision; text-rendering:geometricPrecision; image-rendering:optimizeQuality; fill-rule:evenodd; clip-rule:evenodd"
viewBox="0 0 26.37 26.82"
 xmlns:xlink="http://www.w3.org/1999/xlink"
 xmlns:xodm="http://www.corel.com/coreldraw/odm/2003">
 <defs>
  <style type="text/css">
   <![CDATA[
    .str0 {stroke:#EBECEC;stroke-width:0.38;stroke-miterlimit:22.9256}
    .fil2 {fill:#FEFEFE;fill-rule:nonzero}
    .fil1 {fill:#393185;fill-rule:nonzero}
    .fil0 {fill:#E61E25;fill-rule:nonzero}
   ]]>
  </style>
 </defs>
 <g id="Слой_x0020_1">
  <metadata id="CorelCorpID_0Corel-Layer"/>
  <path class="fil0" d="M25.62 18.04l-4.27 -1.54c-4.69,1.42 -11.64,1.42 -16.33,0l-4.26 1.54c1.86,5.26 6.85,8.78 12.43,8.78 5.59,0 10.57,-3.52 12.43,-8.79l0 0z"/>
  <g id="_2062064849280">
   <path class="fil1" d="M21.35 18.04l4.27 0c0.5,-1.41 0.75,-2.89 0.75,-4.38 0,-0 0,-0.01 0,-0.01 0,2.04 -6.89,-0.78 -5.02,4.4l0 -0zm-21.35 -4.4c0,1.54 0.27,3.02 0.76,4.4l4.26 0c0.51,-5.13 -5.02,-4.4 -5.02,-4.4z"/>
  </g>
  <path class="fil2 str0" d="M13.19 0.46c0,0 -0,0 -0,0 -5.61,0 -10.6,3.55 -12.45,8.84l24.9 -0c-1.85,-5.29 -6.84,-8.84 -12.45,-8.84l0 -0z"/>
  <path class="fil1" d="M5.02 18.04l16.33 0c2.97,-0.9 5.02,-2.36 5.02,-4.4 0,-1.52 -0.26,-2.98 -0.74,-4.34l-24.9 0c-0.48,1.39 -0.73,2.86 -0.73,4.34 0,0 0,0 0,0.01 0,2.04 2.06,3.5 5.02,4.4l-0 -0z"/>
 </g>
</svg>
