<?xml version="1.0" encoding="UTF-8"?>
<!DOCTYPE svg PUBLIC "-//W3C//DTD SVG 1.1//EN" "http://www.w3.org/Graphics/SVG/1.1/DTD/svg11.dtd">
<!-- Creator: CorelDRAW 2020 (64-Bit) -->
<svg xmlns="http://www.w3.org/2000/svg" xml:space="preserve" width="93.2428mm" height="26.3016mm" version="1.1" style="shape-rendering:geometricPrecision; text-rendering:geometricPrecision; image-rendering:optimizeQuality; fill-rule:evenodd; clip-rule:evenodd"
viewBox="0 0 3476.91 980.75"
 xmlns:xlink="http://www.w3.org/1999/xlink"
 xmlns:xodm="http://www.corel.com/coreldraw/odm/2003">
 <defs>
  <style type="text/css">
   <![CDATA[
    .str0 {stroke:#2B2A29;stroke-width:18.64;stroke-miterlimit:22.9256}
    .str1 {stroke:#2B2A29;stroke-width:2.84;stroke-miterlimit:22.9256}
    .fil2 {fill:none;fill-rule:nonzero}
    .fil1 {fill:#2B2A29;fill-rule:nonzero}
    .fil0 {fill:black;fill-rule:nonzero}
   ]]>
  </style>
 </defs>
 <g id="Слой_x0020_1">
  <metadata id="CorelCorpID_0Corel-Layer"/>
  <g id="_2115939659824">
   <path id="path27778" class="fil0 str0" d="M1997.95 400.94l-41.03 0c-10.17,-45.31 -27.85,-88.01 -52.66,-127.21l28.99 -29c17.25,-17.25 17.25,-45.32 0,-62.57l-63.9 -63.9c-8.36,-8.36 -19.47,-12.96 -31.29,-12.96 -11.82,0 -22.93,4.61 -31.29,12.96l-29 28.99c-39.2,-24.81 -81.9,-42.49 -127.21,-52.66l0 -41.03c0,-24.39 -19.85,-44.24 -44.25,-44.24l-90.37 0c-24.4,0 -44.25,19.85 -44.25,44.24l0 41.03c-45.31,10.17 -88.01,27.85 -127.21,52.66l-28.99 -28.99c-8.36,-8.36 -19.47,-12.96 -31.29,-12.96 -11.82,0 -22.93,4.61 -31.29,12.96l-63.91 63.91c-17.25,17.25 -17.25,45.32 0,62.57l29 29c-24.82,39.2 -42.49,81.9 -52.66,127.2l-41.03 0c-24.4,0 -44.25,19.85 -44.25,44.25l0 90.37c0,24.4 19.85,44.25 44.25,44.25l41.03 0c10.17,45.31 27.85,88.01 52.66,127.2l-29 29c-8.36,8.36 -12.96,19.47 -12.96,31.29 0,11.82 4.61,22.93 12.96,31.29l63.91 63.91c8.36,8.36 19.47,12.96 31.29,12.96 11.82,0 22.93,-4.61 31.29,-12.96l29 -29c39.2,24.82 81.9,42.49 127.21,52.66l0 41.03c0,24.4 19.85,44.25 44.25,44.25l90.37 0c24.4,0 44.25,-19.85 44.25,-44.25l0 -41.03c45.31,-10.17 88.01,-27.85 127.21,-52.66l28.99 29c8.36,8.36 19.47,12.96 31.29,12.96 11.82,0 22.93,-4.61 31.29,-12.96l63.91 -63.91c8.36,-8.36 12.96,-19.47 12.96,-31.29 0,-11.82 -4.61,-22.93 -12.96,-31.29l-28.99 -28.99c24.82,-39.2 42.49,-81.9 52.66,-127.21l41.03 -0c24.4,0 44.25,-19.85 44.25,-44.25l0 -90.37c-0,-24.4 -19.85,-44.25 -44.25,-44.25zm16 134.62c0,8.83 -7.18,16 -16,16l-52.5 0c-6.76,0 -12.57,4.79 -13.86,11.42 -9.68,49.66 -28.9,96.1 -57.14,138.01 -3.77,5.6 -3.05,13.1 1.73,17.87l37.1 37.1c3.02,3.02 4.69,7.04 4.69,11.32 0,4.27 -1.66,8.29 -4.69,11.32l-63.91 63.91c-3.02,3.02 -7.04,4.69 -11.32,4.69 -4.28,0 -8.29,-1.66 -11.32,-4.69l-37.1 -37.1c-4.78,-4.78 -12.27,-5.5 -17.87,-1.73 -41.92,28.24 -88.36,47.46 -138.02,57.14 -6.63,1.29 -11.42,7.1 -11.42,13.86l-0 52.5c0,8.83 -7.18,16 -16,16l-90.37 0c-8.83,0 -16,-7.18 -16,-16l0 -52.5c0,-6.76 -4.79,-12.57 -11.42,-13.86 -49.66,-9.68 -96.1,-28.9 -138.01,-57.14 -2.4,-1.62 -5.15,-2.41 -7.89,-2.41 -3.64,0 -7.26,1.41 -9.99,4.14l-37.1 37.1c-3.02,3.02 -7.04,4.69 -11.32,4.69 -4.28,0 -8.29,-1.66 -11.32,-4.69l-63.91 -63.91c-3.02,-3.02 -4.69,-7.04 -4.69,-11.32 0,-4.28 1.66,-8.29 4.69,-11.32l37.1 -37.1c4.78,-4.78 5.5,-12.27 1.73,-17.87 -28.24,-41.92 -47.46,-88.35 -57.14,-138.01 -1.29,-6.63 -7.1,-11.42 -13.86,-11.42l-52.5 -0c-8.83,0 -16,-7.18 -16,-16l0 -90.37c0,-8.83 7.18,-16 16,-16l52.5 0c6.76,0 12.57,-4.79 13.86,-11.42 9.68,-49.66 28.9,-96.1 57.14,-138.01 3.77,-5.6 3.05,-13.1 -1.73,-17.87l-37.1 -37.11c-6.24,-6.24 -6.24,-16.39 0,-22.63l63.91 -63.9c3.02,-3.02 7.04,-4.69 11.32,-4.69 4.28,0 8.29,1.66 11.32,4.69l37.1 37.1c4.78,4.78 12.27,5.5 17.88,1.73 41.91,-28.24 88.35,-47.46 138.01,-57.14 6.63,-1.29 11.42,-7.1 11.42,-13.86l0 -52.5c0,-8.83 7.18,-16 16,-16l90.37 0c8.83,0 16,7.18 16,16l0 52.5c0,6.76 4.79,12.57 11.42,13.86 49.66,9.68 96.1,28.9 138.02,57.14 5.6,3.77 13.1,3.05 17.88,-1.73l37.1 -37.1c3.02,-3.02 7.04,-4.69 11.32,-4.69 4.28,0 8.29,1.66 11.32,4.69l63.91 63.91c6.24,6.24 6.24,16.39 0,22.63l-37.1 37.1c-4.78,4.78 -5.5,12.27 -1.73,17.87 28.24,41.92 47.46,88.36 57.14,138.02 1.29,6.63 7.1,11.42 13.86,11.42l52.5 0c8.83,0 16,7.18 16,16l-0 90.37z"/>
   <path id="path27780" class="fil0 str0" d="M1304.14 490.38c0,-141.71 115.29,-257 257,-257 34.69,0 68.33,6.79 99.99,20.17 7.18,3.04 15.47,-0.32 18.51,-7.51 3.04,-7.18 -0.32,-15.47 -7.51,-18.51 -35.16,-14.87 -72.5,-22.4 -110.99,-22.4 -157.28,0 -285.24,127.96 -285.24,285.24 0,65.14 22.53,128.85 63.45,179.38 2.79,3.45 6.87,5.24 10.98,5.24 3.12,0 6.26,-1.03 8.88,-3.15 6.06,-4.91 7,-13.8 2.09,-19.86 -36.86,-45.52 -57.16,-102.92 -57.16,-161.61z"/>
   <path id="path27782" class="fil0 str0" d="M1805.52 371.97c-7.19,3.03 -10.55,11.32 -7.52,18.5 13.36,31.64 20.14,65.25 20.14,99.9 0,141.71 -115.29,257 -257,257 -58.67,0 -116.05,-20.29 -161.56,-57.12 -6.06,-4.91 -14.95,-3.97 -19.86,2.09 -4.9,6.06 -3.97,14.95 2.09,19.86 50.53,40.89 114.21,63.41 179.33,63.41 157.29,0 285.24,-127.96 285.24,-285.24 0,-38.44 -7.52,-75.75 -22.36,-110.89 -3.04,-7.19 -11.32,-10.55 -18.5,-7.52z"/>
   <path id="path27784" class="fil0 str0" d="M1722.67 290.47c14.08,11.4 27,24.32 38.4,38.4 2.79,3.45 6.87,5.24 10.99,5.24 3.12,0 6.26,-1.03 8.87,-3.14 6.06,-4.9 7,-13.8 2.1,-19.86 -12.64,-15.62 -26.97,-29.95 -42.59,-42.59 -6.06,-4.9 -14.95,-3.97 -19.86,2.1 -4.9,6.06 -3.96,14.96 2.1,19.86l0.01 0z"/>
   <path id="path27786" class="fil0 str0" d="M1561.14 265.38c-124.06,0 -224.99,100.93 -224.99,225 0,124.06 100.93,224.99 224.99,224.99 124.06,0 225,-100.93 225,-224.99 0,-124.06 -100.93,-225 -225,-225zm0 421.75c-108.49,0 -196.75,-88.26 -196.75,-196.75 0,-108.49 88.26,-196.75 196.75,-196.75 108.49,0 196.75,88.27 196.75,196.75 0,108.49 -88.26,196.75 -196.75,196.75z"/>
  </g>
  <path class="fil1" d="M141.65 91.44l0 351.59c0,11.79 0.51,18.86 1.54,21.02 1.33,4 4.41,6.97 9.23,8.71 2.97,1.23 11.07,1.85 24.29,1.85l10.46 0 0 57.81 -185.74 0 0 -57.81 11.38 0c11.99,0 19.68,-0.72 23.06,-2.26 3.38,-1.54 5.84,-3.89 7.48,-7.17 1.54,-3.38 2.36,-10.66 2.36,-22.14l0 -267.95 -44.28 0 0 -57.81c35.88,-2.46 72.88,-11.07 111.12,-25.83l29.11 0z"/>
  <path id="1" class="fil1" d="M308.52 92.05c15.27,0 28.19,5.33 38.95,16.09 10.77,10.66 16.09,23.57 16.09,38.75 0,15.48 -5.33,28.5 -16.09,39.16 -10.76,10.76 -23.68,16.09 -38.95,16.09 -15.27,0 -28.19,-5.33 -38.95,-16.09 -10.77,-10.66 -16.09,-23.58 -16.09,-38.85 0,-14.96 5.53,-27.88 16.5,-38.85 11.07,-10.87 23.88,-16.3 38.54,-16.3zm48.9 134.08l0 221.51c0,10.56 0.62,17.12 1.85,19.48 1.13,2.36 3.28,4.2 6.46,5.54 3.07,1.33 10.05,1.95 20.91,1.95l16.3 0 0 57.81 -185.74 0 0 -57.81 15.89 0c10.36,0 17.02,-0.51 19.89,-1.64 2.87,-1.13 5.02,-2.97 6.46,-5.53 1.33,-2.56 2.05,-7.79 2.05,-15.58l0 -142.69 -44.28 0 0 -56.58c15.78,-0.82 30.95,-2.46 45.51,-5.12 14.45,-2.57 27.47,-5.74 38.85,-9.33 7.38,-2.36 16.5,-6.35 27.37,-11.99l28.5 0z"/>
  <path id="2" class="fil1" d="M554.12 91.44l0 162.37c16.61,-10.35 31.37,-17.53 44.28,-21.53 12.81,-4.1 25.83,-6.15 38.75,-6.15 34.03,0 62.12,12.4 84.36,37.11 25.73,28.7 38.64,67.04 38.64,114.91 0,48.48 -13.02,87.43 -38.95,116.85 -25.93,29.42 -57.3,44.18 -94.2,44.18 -14.96,0 -29.42,-2.46 -43.25,-7.48 -13.84,-5.02 -28.19,-13.23 -43.26,-24.81l-16.19 25.52 -66.12 0 0 -357.33 -44.28 0 0 -57.81c39.67,-2.87 76.57,-11.48 110.6,-25.83l29.62 0zm0 227.56l0 90.72c0,18.35 1.44,30.96 4.31,37.83 2.97,6.87 7.99,12.51 15.27,17.12 7.28,4.61 15.89,6.86 25.62,6.86 16.61,0 29.73,-6.76 39.57,-20.3 12.4,-16.91 18.55,-40.28 18.55,-70.11 0,-28.09 -5.33,-49.82 -15.89,-65.09 -8.61,-12.4 -19.89,-18.55 -33.83,-18.55 -7.79,0 -16.09,1.75 -25.01,5.33 -8.92,3.59 -18.45,9.02 -28.6,16.19z"/>
  <path id="3" class="fil1" d="M806.39 113.58l219.97 0c49.92,0 89.69,7.89 119.21,23.68 29.42,15.89 52.99,39.26 70.52,70.32 17.53,30.96 26.34,68.27 26.34,111.63 0,30.24 -4.51,57.3 -13.43,81.08 -8.92,23.88 -22.14,45.31 -39.87,64.38 -17.63,19.17 -36.6,33.52 -56.79,43.15 -15.27,7.17 -36.9,13.12 -64.89,17.73 -27.99,4.61 -50.43,6.87 -67.24,6.87l-193.83 0 0 -57.81 14.45 0c12.3,0 20.4,-1.03 24.19,-2.97 3.79,-2.05 6.97,-5.43 9.33,-10.25 1.64,-3.79 2.46,-12.1 2.46,-24.91l0 -228.99c0,-12.81 -0.82,-21.12 -2.56,-24.81 -1.74,-3.69 -4.51,-6.56 -8.51,-8.4 -3.9,-1.95 -12.2,-2.87 -24.91,-2.87l-14.45 0 0 -57.81zm153.76 67.04l0 260.67c0,8.82 0.51,14.25 1.54,16.3 1.54,2.97 3.9,5.02 7.07,6.15 3.07,1.13 10.56,1.64 22.34,1.64 33.01,0 58.74,-5.02 77.29,-15.17 18.55,-10.15 33.52,-26.34 45,-48.69 11.38,-22.35 17.12,-49 17.12,-79.85 0,-30.44 -5.33,-56.99 -16.09,-79.54 -10.76,-22.55 -23.98,-38.44 -39.87,-47.66 -15.89,-9.23 -38.54,-13.84 -68.06,-13.84l-46.33 0z"/>
  <path id="4" class="fil2 str1" d="M141.65 91.44l0 351.59c0,11.79 0.51,18.86 1.54,21.02 1.33,4 4.41,6.97 9.23,8.71 2.97,1.23 11.07,1.85 24.29,1.85l10.46 0 0 57.81 -185.74 0 0 -57.81 11.38 0c11.99,0 19.68,-0.72 23.06,-2.26 3.38,-1.54 5.84,-3.89 7.48,-7.17 1.54,-3.38 2.36,-10.66 2.36,-22.14l0 -267.95 -44.28 0 0 -57.81c35.88,-2.46 72.88,-11.07 111.12,-25.83l29.11 0z"/>
  <path id="5" class="fil2 str1" d="M308.52 92.05c15.27,0 28.19,5.33 38.95,16.09 10.77,10.66 16.09,23.57 16.09,38.75 0,15.48 -5.33,28.5 -16.09,39.16 -10.76,10.76 -23.68,16.09 -38.95,16.09 -15.27,0 -28.19,-5.33 -38.95,-16.09 -10.77,-10.66 -16.09,-23.58 -16.09,-38.85 0,-14.96 5.53,-27.88 16.5,-38.85 11.07,-10.87 23.88,-16.3 38.54,-16.3zm48.9 134.08l0 221.51c0,10.56 0.62,17.12 1.85,19.48 1.13,2.36 3.28,4.2 6.46,5.54 3.07,1.33 10.05,1.95 20.91,1.95l16.3 0 0 57.81 -185.74 0 0 -57.81 15.89 0c10.36,0 17.02,-0.51 19.89,-1.64 2.87,-1.13 5.02,-2.97 6.46,-5.53 1.33,-2.56 2.05,-7.79 2.05,-15.58l0 -142.69 -44.28 0 0 -56.58c15.78,-0.82 30.95,-2.46 45.51,-5.12 14.45,-2.57 27.47,-5.74 38.85,-9.33 7.38,-2.36 16.5,-6.35 27.37,-11.99l28.5 0z"/>
  <path id="6" class="fil2 str1" d="M554.12 91.44l0 162.37c16.61,-10.35 31.37,-17.53 44.28,-21.53 12.81,-4.1 25.83,-6.15 38.75,-6.15 34.03,0 62.12,12.4 84.36,37.11 25.73,28.7 38.64,67.04 38.64,114.91 0,48.48 -13.02,87.43 -38.95,116.85 -25.93,29.42 -57.3,44.18 -94.2,44.18 -14.96,0 -29.42,-2.46 -43.25,-7.48 -13.84,-5.02 -28.19,-13.23 -43.26,-24.81l-16.19 25.52 -66.12 0 0 -357.33 -44.28 0 0 -57.81c39.67,-2.87 76.57,-11.48 110.6,-25.83l29.62 0zm0 227.56l0 90.72c0,18.35 1.44,30.96 4.31,37.83 2.97,6.87 7.99,12.51 15.27,17.12 7.28,4.61 15.89,6.86 25.62,6.86 16.61,0 29.73,-6.76 39.57,-20.3 12.4,-16.91 18.55,-40.28 18.55,-70.11 0,-28.09 -5.33,-49.82 -15.89,-65.09 -8.61,-12.4 -19.89,-18.55 -33.83,-18.55 -7.79,0 -16.09,1.75 -25.01,5.33 -8.92,3.59 -18.45,9.02 -28.6,16.19z"/>
  <path id="7" class="fil2 str1" d="M806.39 113.58l219.97 0c49.92,0 89.69,7.89 119.21,23.68 29.42,15.89 52.99,39.26 70.52,70.32 17.53,30.96 26.34,68.27 26.34,111.63 0,30.24 -4.51,57.3 -13.43,81.08 -8.92,23.88 -22.14,45.31 -39.87,64.38 -17.63,19.17 -36.6,33.52 -56.79,43.15 -15.27,7.17 -36.9,13.12 -64.89,17.73 -27.99,4.61 -50.43,6.87 -67.24,6.87l-193.83 0 0 -57.81 14.45 0c12.3,0 20.4,-1.03 24.19,-2.97 3.79,-2.05 6.97,-5.43 9.33,-10.25 1.64,-3.79 2.46,-12.1 2.46,-24.91l0 -228.99c0,-12.81 -0.82,-21.12 -2.56,-24.81 -1.74,-3.69 -4.51,-6.56 -8.51,-8.4 -3.9,-1.95 -12.2,-2.87 -24.91,-2.87l-14.45 0 0 -57.81zm153.76 67.04l0 260.67c0,8.82 0.51,14.25 1.54,16.3 1.54,2.97 3.9,5.02 7.07,6.15 3.07,1.13 10.56,1.64 22.34,1.64 33.01,0 58.74,-5.02 77.29,-15.17 18.55,-10.15 33.52,-26.34 45,-48.69 11.38,-22.35 17.12,-49 17.12,-79.85 0,-30.44 -5.33,-56.99 -16.09,-79.54 -10.76,-22.55 -23.98,-38.44 -39.87,-47.66 -15.89,-9.23 -38.54,-13.84 -68.06,-13.84l-46.33 0z"/>
  <path class="fil1" d="M2040.31 538.39l0 39.87c17.43,-13.43 35.16,-23.37 53.1,-30.03 18.04,-6.56 36.39,-9.84 54.94,-9.84 11.89,0 23.17,1.74 34.13,5.23 10.87,3.48 19.99,8.1 27.27,13.63 7.38,5.64 14.04,13.22 19.99,22.76 19.48,-14.76 38.03,-25.42 55.86,-31.88 17.84,-6.45 35.88,-9.74 54.33,-9.74 15.99,0 30.55,2.87 43.56,8.71 13.02,5.74 23.57,13.64 31.67,23.48 8.1,9.94 13.32,20.7 15.78,32.29 1.54,7.17 2.36,17.63 2.36,31.47l0 124.03c0,10.25 0.72,16.81 2.26,19.78 1.44,2.98 4,5.33 7.48,6.87 2.56,1.23 9.74,1.85 21.53,1.85l13.02 0 0 57.81 -174.67 0 0 -57.81c13.02,0 21.12,-0.62 24.6,-1.95 3.39,-1.33 5.84,-3.38 7.48,-6.25 1.54,-2.97 2.36,-9.33 2.36,-19.07l0 -108.76c0,-12.61 -0.82,-20.91 -2.56,-25.01 -1.74,-4.1 -5.02,-7.58 -9.94,-10.56 -4.92,-2.87 -10.77,-4.31 -17.53,-4.31 -7.89,0 -16.3,1.75 -25.32,5.23 -9.02,3.49 -22.34,11.18 -39.98,22.96l0 117.16c0,11.58 0.82,18.86 2.36,21.83 1.64,2.98 4.41,5.33 8.4,6.87 2.46,1.03 10.35,1.64 23.68,1.85l0 57.81 -164.83 0 0 -57.81c13.74,-0.21 22.04,-0.92 25.11,-2.05 2.97,-1.23 5.33,-3.38 6.87,-6.56 1.64,-3.28 2.46,-10.46 2.46,-21.83l0 -102.4c0,-15.79 -1.43,-26.24 -4.2,-31.37 -4.41,-7.79 -12.2,-11.69 -23.47,-11.69 -5.64,0 -11.48,0.72 -17.73,2.05 -6.25,1.44 -12.3,3.59 -18.35,6.56 -3.18,1.64 -11.38,6.87 -24.6,15.58l-6.97 4.51 0 116.75c0,11.17 0.62,18.14 1.85,20.91 1.13,2.77 3.49,5.02 6.97,6.86 3.49,1.75 9.53,2.67 18.14,2.67l8.1 0 0 57.81 -175.28 0 0 -57.81 11.69 0c12.4,0 20.09,-0.62 23.16,-1.95 3.08,-1.33 5.43,-3.59 7.07,-6.87 1.54,-3.28 2.36,-10.46 2.36,-21.63l0 -134.38 -44.28 0 0 -57.81c36.7,-3.48 70.52,-12.1 101.58,-25.83l28.19 0z"/>
  <path id="1" class="fil1" d="M2700.85 663.24l0 -22.04c0,-13.12 -1.13,-22.14 -3.28,-27.06 -2.26,-5.02 -6.25,-9.12 -12.1,-12.4 -5.84,-3.28 -13.12,-4.92 -21.73,-4.92 -6.66,0 -12.71,1.13 -18.14,3.28 -5.43,2.16 -9.74,4.92 -12.92,8.3 -3.28,3.38 -6.97,9.94 -11.17,19.68 -5.43,12.3 -11.89,21.12 -19.38,26.55 -7.48,5.33 -16.4,7.99 -26.55,7.99 -12.82,0 -23.37,-4 -31.57,-11.99 -8.2,-7.99 -12.3,-17.84 -12.3,-29.63 0,-13.32 4.2,-25.21 12.61,-35.57 11.28,-13.84 27.99,-25.11 50.23,-33.93 22.24,-8.71 47.26,-13.12 75.03,-13.12 27.88,0 51.56,4.51 71.14,13.43 19.48,9.02 33.11,19.78 40.8,32.19 7.69,12.5 11.58,31.57 11.58,57.09l0 107.12c0,13.22 0.72,21.63 2.15,25.32 1.33,3.69 4.41,6.97 9.02,9.74 4.61,2.77 9.74,4.2 15.38,4.2 5.64,0 13.22,-1.64 22.65,-4.82l0 58.84c-17.01,5.43 -33.42,8.1 -49.1,8.1 -18.45,0 -34.13,-2.97 -47.26,-9.02 -13.02,-6.04 -23.99,-15.07 -32.8,-27.16 -20.09,13.02 -38.23,22.34 -54.63,27.88 -16.3,5.53 -32.09,8.3 -47.36,8.3 -28.7,0 -51.86,-8.1 -69.6,-24.19 -17.63,-16.09 -26.45,-35.98 -26.45,-59.55 0,-13.43 3.08,-25.73 9.23,-36.9 6.15,-11.18 15.27,-21.02 27.37,-29.42 12.2,-8.4 30.95,-15.78 56.48,-22.35 25.42,-6.45 56.28,-11.17 92.67,-13.94zm0 49.82c-26.34,3.79 -45,7.69 -55.87,11.58 -10.87,3.9 -18.66,8.71 -23.27,14.66 -4.61,5.94 -6.97,11.99 -6.97,18.14 0,7.99 2.97,14.66 9.02,20.09 6.05,5.43 14.25,8.1 24.5,8.1 6.66,0 14.35,-1.74 23.16,-5.12 8.71,-3.38 18.55,-8.4 29.42,-14.97l0 -52.48z"/>
  <path id="2" class="fil1" d="M2967.46 404.31c15.27,0 28.19,5.33 38.95,16.09 10.77,10.66 16.09,23.57 16.09,38.75 0,15.48 -5.33,28.5 -16.09,39.16 -10.76,10.76 -23.68,16.09 -38.95,16.09 -15.27,0 -28.19,-5.33 -38.95,-16.09 -10.77,-10.66 -16.09,-23.58 -16.09,-38.85 0,-14.96 5.53,-27.88 16.5,-38.85 11.07,-10.87 23.88,-16.3 38.54,-16.3zm48.9 134.08l0 221.51c0,10.56 0.62,17.12 1.85,19.48 1.13,2.36 3.28,4.2 6.46,5.54 3.07,1.33 10.05,1.95 20.91,1.95l16.3 0 0 57.81 -185.74 0 0 -57.81 15.89 0c10.36,0 17.02,-0.51 19.89,-1.64 2.87,-1.13 5.02,-2.97 6.46,-5.53 1.33,-2.56 2.05,-7.79 2.05,-15.58l0 -142.69 -44.28 0 0 -56.58c15.78,-0.82 30.95,-2.46 45.51,-5.12 14.45,-2.57 27.47,-5.74 38.85,-9.33 7.38,-2.36 16.5,-6.35 27.37,-11.99l28.5 0z"/>
  <path id="3" class="fil1" d="M3229.05 538.39l0 39.87c22.65,-15.37 42.13,-25.93 58.22,-31.47 16.19,-5.64 32.7,-8.4 49.61,-8.4 19.48,0 36.7,4.1 51.56,12.3 14.96,8.2 25.93,18.45 32.7,30.75 6.87,12.2 10.25,29.73 10.25,52.28l0 124.65c0,10.66 0.72,17.43 2.26,20.4 1.43,2.98 3.79,5.23 7.07,6.56 2.36,1.03 9.53,1.54 21.53,1.54l14.66 0 0 57.81 -175.9 0 0 -57.81c13.22,-0.21 20.71,-0.51 22.25,-0.92 5.02,-1.33 8.2,-3.69 9.84,-6.87 1.54,-3.18 2.36,-10.05 2.36,-20.61l0 -109.58c0,-14.14 -1.54,-23.27 -4.51,-27.47 -4.82,-6.97 -12.4,-10.46 -22.86,-10.46 -8.61,0 -17.84,1.85 -27.68,5.64 -9.84,3.79 -23.06,11.59 -39.67,23.37l0 118.49c0,12.92 1.43,20.91 4.3,23.88 2.77,2.98 9.64,4.51 20.4,4.51l9.74 0 0 57.81 -174.67 0 0 -57.81 8.71 0c13.73,0 22.24,-0.62 25.52,-1.74 3.28,-1.23 5.84,-3.38 7.48,-6.36 1.75,-2.97 2.57,-8.82 2.57,-17.63l0 -139.1 -44.28 0 0 -57.81c35.88,-4.51 69.5,-13.12 100.76,-25.83l27.78 0z"/>
 </g>
</svg>
