<?xml version="1.0" encoding="UTF-8"?>
<!DOCTYPE svg PUBLIC "-//W3C//DTD SVG 1.1//EN" "http://www.w3.org/Graphics/SVG/1.1/DTD/svg11.dtd">
<!-- Creator: CorelDRAW 2020 (64-Bit) -->
<svg xmlns="http://www.w3.org/2000/svg" xml:space="preserve" width="93.2809mm" height="26.3016mm" version="1.1" style="shape-rendering:geometricPrecision; text-rendering:geometricPrecision; image-rendering:optimizeQuality; fill-rule:evenodd; clip-rule:evenodd"
viewBox="0 0 2428.03 684.61"
 xmlns:xlink="http://www.w3.org/1999/xlink"
 xmlns:xodm="http://www.corel.com/coreldraw/odm/2003">
 <defs>
  <style type="text/css">
   <![CDATA[
    .str0 {stroke:#FEFEFE;stroke-width:13.01;stroke-miterlimit:22.9256}
    .str1 {stroke:#FEFEFE;stroke-width:1.98;stroke-miterlimit:22.9256}
    .fil1 {fill:none;fill-rule:nonzero}
    .fil0 {fill:#FEFEFE;fill-rule:nonzero}
   ]]>
  </style>
 </defs>
 <g id="Слой_x0020_1">
  <metadata id="CorelCorpID_0Corel-Layer"/>
  <g id="_2115784289152">
   <path id="path27778" class="fil0 str0" d="M1394.66 279.88l-28.64 0c-7.1,-31.63 -19.44,-61.43 -36.76,-88.8l20.24 -20.24c12.04,-12.04 12.04,-31.64 0,-43.68l-44.61 -44.61c-5.83,-5.83 -13.59,-9.05 -21.84,-9.05 -8.25,0 -16.01,3.21 -21.84,9.05l-20.24 20.24c-27.36,-17.32 -57.17,-29.66 -88.8,-36.76l0 -28.64c0,-17.03 -13.86,-30.88 -30.89,-30.88l-63.08 0c-17.03,0 -30.89,13.86 -30.89,30.88l0 28.64c-31.63,7.1 -61.43,19.44 -88.8,36.76l-20.24 -20.24c-5.83,-5.83 -13.59,-9.05 -21.84,-9.05 -8.25,0 -16.01,3.21 -21.84,9.05l-44.61 44.61c-12.04,12.04 -12.04,31.64 0,43.68l20.24 20.24c-17.32,27.36 -29.66,57.17 -36.76,88.79l-28.64 0c-17.03,0 -30.89,13.86 -30.89,30.89l0 63.08c0,17.03 13.86,30.89 30.89,30.89l28.64 0c7.1,31.63 19.44,61.43 36.76,88.79l-20.24 20.24c-5.83,5.83 -9.05,13.59 -9.05,21.84 0,8.25 3.21,16.01 9.05,21.84l44.61 44.61c5.83,5.83 13.59,9.05 21.84,9.05 8.25,0 16.01,-3.21 21.84,-9.05l20.24 -20.24c27.36,17.32 57.17,29.66 88.8,36.76l0 28.64c0,17.03 13.86,30.89 30.89,30.89l63.08 0c17.03,0 30.89,-13.86 30.89,-30.89l0 -28.64c31.63,-7.1 61.43,-19.44 88.8,-36.76l20.24 20.24c5.83,5.83 13.59,9.05 21.84,9.05 8.25,0 16.01,-3.21 21.84,-9.05l44.61 -44.61c5.83,-5.83 9.05,-13.59 9.05,-21.84 0,-8.25 -3.21,-16.01 -9.05,-21.84l-20.24 -20.24c17.32,-27.36 29.66,-57.17 36.76,-88.8l28.64 -0c17.03,0 30.89,-13.86 30.89,-30.89l0 -63.08c-0,-17.03 -13.86,-30.89 -30.89,-30.89zm11.17 93.97c0,6.16 -5.01,11.17 -11.17,11.17l-36.64 0c-4.72,0 -8.77,3.34 -9.68,7.97 -6.75,34.67 -20.18,67.08 -39.88,96.34 -2.63,3.91 -2.13,9.14 1.21,12.48l25.9 25.9c2.11,2.11 3.27,4.91 3.27,7.9 0,2.98 -1.16,5.79 -3.27,7.9l-44.61 44.61c-2.11,2.11 -4.91,3.27 -7.9,3.27 -2.99,0 -5.79,-1.16 -7.9,-3.27l-25.9 -25.9c-3.33,-3.33 -8.57,-3.84 -12.48,-1.21 -29.26,19.71 -61.68,33.13 -96.34,39.88 -4.63,0.9 -7.97,4.96 -7.97,9.68l-0 36.65c0,6.16 -5.01,11.17 -11.17,11.17l-63.08 0c-6.16,0 -11.17,-5.01 -11.17,-11.17l0 -36.65c0,-4.72 -3.34,-8.77 -7.97,-9.68 -34.67,-6.75 -67.08,-20.18 -96.34,-39.88 -1.68,-1.13 -3.59,-1.68 -5.51,-1.68 -2.54,0 -5.07,0.98 -6.97,2.89l-25.9 25.9c-2.11,2.11 -4.91,3.27 -7.9,3.27 -2.99,0 -5.79,-1.16 -7.9,-3.27l-44.61 -44.61c-2.11,-2.11 -3.27,-4.91 -3.27,-7.9 0,-2.99 1.16,-5.79 3.27,-7.9l25.9 -25.9c3.33,-3.33 3.84,-8.57 1.21,-12.48 -19.71,-29.26 -33.13,-61.67 -39.88,-96.34 -0.9,-4.63 -4.96,-7.97 -9.68,-7.97l-36.65 -0c-6.16,0 -11.17,-5.01 -11.17,-11.17l0 -63.08c0,-6.16 5.01,-11.17 11.17,-11.17l36.65 0c4.72,0 8.77,-3.34 9.68,-7.97 6.75,-34.67 20.18,-67.08 39.88,-96.34 2.63,-3.91 2.13,-9.14 -1.21,-12.48l-25.9 -25.9c-4.35,-4.35 -4.35,-11.44 0,-15.8l44.61 -44.61c2.11,-2.11 4.91,-3.27 7.9,-3.27 2.99,0 5.79,1.16 7.9,3.27l25.9 25.9c3.33,3.33 8.56,3.84 12.48,1.21 29.26,-19.71 61.67,-33.13 96.34,-39.89 4.63,-0.9 7.97,-4.96 7.97,-9.68l0 -36.65c0,-6.16 5.01,-11.17 11.17,-11.17l63.08 0c6.16,0 11.17,5.01 11.17,11.17l0 36.65c0,4.72 3.34,8.77 7.97,9.68 34.67,6.75 67.08,20.18 96.34,39.88 3.91,2.63 9.14,2.13 12.48,-1.21l25.9 -25.9c2.11,-2.11 4.91,-3.27 7.9,-3.27 2.99,0 5.79,1.16 7.9,3.27l44.61 44.61c4.35,4.35 4.35,11.44 0,15.8l-25.9 25.9c-3.33,3.33 -3.84,8.57 -1.21,12.48 19.71,29.26 33.13,61.68 39.88,96.34 0.9,4.63 4.96,7.97 9.68,7.97l36.65 0c6.16,0 11.17,5.01 11.17,11.17l-0 63.08z"/>
   <path id="path27780" class="fil0 str0" d="M910.34 342.3c0,-98.92 80.48,-179.4 179.4,-179.4 24.21,0 47.7,4.74 69.8,14.08 5.01,2.12 10.8,-0.23 12.92,-5.24 2.12,-5.01 -0.23,-10.8 -5.24,-12.92 -24.54,-10.38 -50.61,-15.64 -77.47,-15.64 -109.79,0 -199.11,89.32 -199.11,199.11 0,45.47 15.73,89.94 44.29,125.22 1.95,2.41 4.79,3.65 7.67,3.65 2.18,0 4.37,-0.72 6.2,-2.2 4.23,-3.43 4.88,-9.63 1.46,-13.86 -25.73,-31.78 -39.9,-71.84 -39.9,-112.81z"/>
   <path id="path27782" class="fil0 str0" d="M1260.33 259.65c-5.02,2.12 -7.36,7.9 -5.25,12.92 9.33,22.09 14.06,45.55 14.06,69.73 0,98.92 -80.48,179.4 -179.4,179.4 -40.95,0 -81.01,-14.16 -112.78,-39.87 -4.23,-3.43 -10.44,-2.77 -13.86,1.46 -3.42,4.23 -2.77,10.44 1.46,13.86 35.27,28.54 79.72,44.26 125.18,44.26 109.79,0 199.11,-89.32 199.11,-199.11 0,-26.84 -5.25,-52.88 -15.61,-77.4 -2.12,-5.02 -7.9,-7.36 -12.92,-5.25z"/>
   <path id="path27784" class="fil0 str0" d="M1202.5 202.76c9.83,7.95 18.85,16.97 26.8,26.8 1.95,2.41 4.79,3.66 7.67,3.66 2.18,0 4.37,-0.72 6.19,-2.19 4.23,-3.42 4.89,-9.63 1.46,-13.86 -8.82,-10.91 -18.83,-20.91 -29.73,-29.73 -4.23,-3.42 -10.44,-2.77 -13.86,1.46 -3.42,4.23 -2.77,10.44 1.46,13.86l0.01 0z"/>
   <path id="path27786" class="fil0 str0" d="M1089.74 185.25c-86.6,0 -157.05,70.46 -157.05,157.06 0,86.6 70.45,157.05 157.05,157.05 86.6,0 157.06,-70.45 157.06,-157.05 0,-86.6 -70.46,-157.06 -157.06,-157.06zm0 294.4c-75.73,0 -137.34,-61.61 -137.34,-137.34 0,-75.73 61.61,-137.34 137.34,-137.34 75.73,0 137.34,61.61 137.34,137.34 0,75.73 -61.61,137.34 -137.34,137.34z"/>
  </g>
  <path class="fil0" d="M98.88 63.83l0 245.42c0,8.23 0.36,13.17 1.07,14.67 0.93,2.79 3.08,4.86 6.44,6.08 2.07,0.86 7.73,1.29 16.96,1.29l7.3 0 0 40.36 -129.65 0 0 -40.36 7.94 0c8.37,0 13.74,-0.5 16.1,-1.57 2.36,-1.07 4.08,-2.72 5.22,-5.01 1.08,-2.36 1.65,-7.44 1.65,-15.46l0 -187.04 -30.91 0 0 -40.36c25.04,-1.72 50.87,-7.73 77.56,-18.03l20.32 0z"/>
  <path id="1" class="fil0" d="M215.36 64.26c10.66,0 19.68,3.72 27.19,11.23 7.51,7.44 11.23,16.46 11.23,27.05 0,10.8 -3.72,19.89 -11.23,27.33 -7.51,7.51 -16.53,11.23 -27.19,11.23 -10.66,0 -19.68,-3.72 -27.19,-11.23 -7.51,-7.44 -11.23,-16.46 -11.23,-27.12 0,-10.45 3.86,-19.46 11.52,-27.12 7.73,-7.58 16.67,-11.38 26.9,-11.38zm34.13 93.59l0 154.62c0,7.37 0.43,11.95 1.29,13.6 0.79,1.65 2.29,2.93 4.51,3.87 2.14,0.93 7.01,1.36 14.59,1.36l11.38 0 0 40.36 -129.65 0 0 -40.36 11.09 0c7.23,0 11.88,-0.36 13.88,-1.15 2,-0.79 3.51,-2.07 4.51,-3.86 0.93,-1.79 1.43,-5.44 1.43,-10.88l0 -99.6 -30.91 0 0 -39.5c11.02,-0.57 21.61,-1.72 31.77,-3.58 10.09,-1.79 19.18,-4.01 27.12,-6.51 5.15,-1.65 11.52,-4.44 19.11,-8.37l19.89 0z"/>
  <path id="2" class="fil0" d="M386.8 63.83l0 113.34c11.59,-7.23 21.9,-12.24 30.91,-15.03 8.94,-2.86 18.03,-4.29 27.05,-4.29 23.75,0 43.36,8.66 58.89,25.9 17.96,20.03 26.97,46.8 26.97,80.21 0,33.84 -9.09,61.03 -27.19,81.57 -18.1,20.54 -40,30.84 -65.76,30.84 -10.45,0 -20.53,-1.72 -30.19,-5.22 -9.66,-3.51 -19.68,-9.23 -30.2,-17.32l-11.3 17.82 -46.15 0 0 -249.43 -30.91 0 0 -40.36c27.69,-2 53.45,-8.01 77.21,-18.03l20.68 0zm0 158.85l0 63.32c0,12.81 1,21.61 3.01,26.4 2.07,4.79 5.58,8.73 10.66,11.95 5.08,3.22 11.09,4.79 17.89,4.79 11.59,0 20.75,-4.72 27.62,-14.17 8.66,-11.8 12.95,-28.12 12.95,-48.94 0,-19.61 -3.72,-34.77 -11.09,-45.44 -6.01,-8.66 -13.88,-12.95 -23.61,-12.95 -5.44,0 -11.23,1.22 -17.46,3.72 -6.23,2.5 -12.88,6.3 -19.96,11.3z"/>
  <path id="3" class="fil0" d="M562.89 79.28l153.55 0c34.85,0 62.61,5.51 83.22,16.53 20.53,11.09 36.99,27.4 49.23,49.08 12.24,21.61 18.39,47.65 18.39,77.92 0,21.11 -3.15,40 -9.37,56.6 -6.22,16.67 -15.46,31.63 -27.83,44.94 -12.31,13.38 -25.55,23.4 -39.64,30.12 -10.66,5.01 -25.76,9.16 -45.29,12.38 -19.53,3.22 -35.2,4.79 -46.94,4.79l-135.3 0 0 -40.36 10.09 0c8.58,0 14.24,-0.72 16.89,-2.07 2.65,-1.43 4.86,-3.79 6.51,-7.16 1.14,-2.65 1.72,-8.44 1.72,-17.39l0 -159.85c0,-8.94 -0.57,-14.74 -1.79,-17.32 -1.22,-2.57 -3.15,-4.58 -5.94,-5.87 -2.72,-1.36 -8.52,-2 -17.39,-2l-10.09 0 0 -40.36zm107.33 46.8l0 181.96c0,6.15 0.36,9.95 1.07,11.38 1.07,2.07 2.72,3.51 4.94,4.29 2.14,0.79 7.37,1.15 15.6,1.15 23.04,0 41,-3.51 53.95,-10.59 12.95,-7.09 23.4,-18.39 31.41,-33.99 7.94,-15.6 11.95,-34.2 11.95,-55.74 0,-21.25 -3.72,-39.78 -11.23,-55.53 -7.51,-15.74 -16.74,-26.83 -27.83,-33.27 -11.09,-6.44 -26.9,-9.66 -47.51,-9.66l-32.34 0z"/>
  <path id="4" class="fil1 str1" d="M98.88 63.83l0 245.42c0,8.23 0.36,13.17 1.07,14.67 0.93,2.79 3.08,4.86 6.44,6.08 2.07,0.86 7.73,1.29 16.96,1.29l7.3 0 0 40.36 -129.65 0 0 -40.36 7.94 0c8.37,0 13.74,-0.5 16.1,-1.57 2.36,-1.07 4.08,-2.72 5.22,-5.01 1.08,-2.36 1.65,-7.44 1.65,-15.46l0 -187.04 -30.91 0 0 -40.36c25.04,-1.72 50.87,-7.73 77.56,-18.03l20.32 0z"/>
  <path id="5" class="fil1 str1" d="M215.36 64.26c10.66,0 19.68,3.72 27.19,11.23 7.51,7.44 11.23,16.46 11.23,27.05 0,10.8 -3.72,19.89 -11.23,27.33 -7.51,7.51 -16.53,11.23 -27.19,11.23 -10.66,0 -19.68,-3.72 -27.19,-11.23 -7.51,-7.44 -11.23,-16.46 -11.23,-27.12 0,-10.45 3.86,-19.46 11.52,-27.12 7.73,-7.58 16.67,-11.38 26.9,-11.38zm34.13 93.59l0 154.62c0,7.37 0.43,11.95 1.29,13.6 0.79,1.65 2.29,2.93 4.51,3.87 2.14,0.93 7.01,1.36 14.59,1.36l11.38 0 0 40.36 -129.65 0 0 -40.36 11.09 0c7.23,0 11.88,-0.36 13.88,-1.15 2,-0.79 3.51,-2.07 4.51,-3.86 0.93,-1.79 1.43,-5.44 1.43,-10.88l0 -99.6 -30.91 0 0 -39.5c11.02,-0.57 21.61,-1.72 31.77,-3.58 10.09,-1.79 19.18,-4.01 27.12,-6.51 5.15,-1.65 11.52,-4.44 19.11,-8.37l19.89 0z"/>
  <path id="6" class="fil1 str1" d="M386.8 63.83l0 113.34c11.59,-7.23 21.9,-12.24 30.91,-15.03 8.94,-2.86 18.03,-4.29 27.05,-4.29 23.75,0 43.36,8.66 58.89,25.9 17.96,20.03 26.97,46.8 26.97,80.21 0,33.84 -9.09,61.03 -27.19,81.57 -18.1,20.54 -40,30.84 -65.76,30.84 -10.45,0 -20.53,-1.72 -30.19,-5.22 -9.66,-3.51 -19.68,-9.23 -30.2,-17.32l-11.3 17.82 -46.15 0 0 -249.43 -30.91 0 0 -40.36c27.69,-2 53.45,-8.01 77.21,-18.03l20.68 0zm0 158.85l0 63.32c0,12.81 1,21.61 3.01,26.4 2.07,4.79 5.58,8.73 10.66,11.95 5.08,3.22 11.09,4.79 17.89,4.79 11.59,0 20.75,-4.72 27.62,-14.17 8.66,-11.8 12.95,-28.12 12.95,-48.94 0,-19.61 -3.72,-34.77 -11.09,-45.44 -6.01,-8.66 -13.88,-12.95 -23.61,-12.95 -5.44,0 -11.23,1.22 -17.46,3.72 -6.23,2.5 -12.88,6.3 -19.96,11.3z"/>
  <path id="7" class="fil1 str1" d="M562.89 79.28l153.55 0c34.85,0 62.61,5.51 83.22,16.53 20.53,11.09 36.99,27.4 49.23,49.08 12.24,21.61 18.39,47.65 18.39,77.92 0,21.11 -3.15,40 -9.37,56.6 -6.22,16.67 -15.46,31.63 -27.83,44.94 -12.31,13.38 -25.55,23.4 -39.64,30.12 -10.66,5.01 -25.76,9.16 -45.29,12.38 -19.53,3.22 -35.2,4.79 -46.94,4.79l-135.3 0 0 -40.36 10.09 0c8.58,0 14.24,-0.72 16.89,-2.07 2.65,-1.43 4.86,-3.79 6.51,-7.16 1.14,-2.65 1.72,-8.44 1.72,-17.39l0 -159.85c0,-8.94 -0.57,-14.74 -1.79,-17.32 -1.22,-2.57 -3.15,-4.58 -5.94,-5.87 -2.72,-1.36 -8.52,-2 -17.39,-2l-10.09 0 0 -40.36zm107.33 46.8l0 181.96c0,6.15 0.36,9.95 1.07,11.38 1.07,2.07 2.72,3.51 4.94,4.29 2.14,0.79 7.37,1.15 15.6,1.15 23.04,0 41,-3.51 53.95,-10.59 12.95,-7.09 23.4,-18.39 31.41,-33.99 7.94,-15.6 11.95,-34.2 11.95,-55.74 0,-21.25 -3.72,-39.78 -11.23,-55.53 -7.51,-15.74 -16.74,-26.83 -27.83,-33.27 -11.09,-6.44 -26.9,-9.66 -47.51,-9.66l-32.34 0z"/>
  <path class="fil0" d="M1424.23 375.82l0 27.83c12.17,-9.37 24.54,-16.31 37.07,-20.96 12.59,-4.58 25.4,-6.87 38.35,-6.87 8.3,0 16.17,1.22 23.83,3.65 7.58,2.43 13.95,5.65 19.03,9.52 5.15,3.94 9.8,9.23 13.95,15.89 13.6,-10.3 26.54,-17.75 38.99,-22.25 12.45,-4.51 25.05,-6.8 37.92,-6.8 11.16,0 21.32,2 30.41,6.08 9.09,4.01 16.46,9.52 22.11,16.39 5.65,6.94 9.3,14.45 11.02,22.54 1.08,5.01 1.65,12.31 1.65,21.97l0 86.58c0,7.16 0.5,11.73 1.57,13.81 1,2.08 2.79,3.72 5.22,4.79 1.79,0.86 6.8,1.29 15.03,1.29l9.09 0 0 40.36 -121.93 0 0 -40.36c9.09,0 14.74,-0.43 17.17,-1.36 2.36,-0.93 4.08,-2.36 5.22,-4.37 1.08,-2.07 1.65,-6.51 1.65,-13.31l0 -75.92c0,-8.8 -0.57,-14.6 -1.79,-17.46 -1.22,-2.86 -3.51,-5.29 -6.94,-7.37 -3.44,-2 -7.51,-3.01 -12.24,-3.01 -5.51,0 -11.38,1.22 -17.67,3.65 -6.3,2.43 -15.6,7.8 -27.91,16.03l0 81.78c0,8.08 0.57,13.17 1.65,15.24 1.14,2.08 3.08,3.72 5.87,4.79 1.72,0.72 7.23,1.15 16.53,1.29l0 40.36 -115.06 0 0 -40.36c9.59,-0.14 15.38,-0.64 17.53,-1.43 2.07,-0.86 3.72,-2.36 4.79,-4.58 1.14,-2.29 1.72,-7.3 1.72,-15.24l0 -71.48c0,-11.02 -1,-18.32 -2.93,-21.9 -3.08,-5.44 -8.51,-8.16 -16.39,-8.16 -3.94,0 -8.01,0.5 -12.38,1.43 -4.37,1 -8.59,2.5 -12.81,4.58 -2.22,1.15 -7.94,4.79 -17.17,10.88l-4.87 3.15 0 81.5c0,7.8 0.43,12.66 1.29,14.6 0.79,1.93 2.43,3.5 4.86,4.79 2.43,1.22 6.66,1.86 12.67,1.86l5.65 0 0 40.36 -122.36 0 0 -40.36 8.16 0c8.66,0 14.02,-0.43 16.17,-1.36 2.15,-0.93 3.79,-2.5 4.94,-4.79 1.07,-2.29 1.65,-7.3 1.65,-15.1l0 -93.81 -30.91 0 0 -40.36c25.62,-2.43 49.23,-8.44 70.91,-18.03l19.68 0z"/>
  <path id="1" class="fil0" d="M1885.31 462.97l0 -15.38c0,-9.16 -0.79,-15.46 -2.29,-18.89 -1.57,-3.5 -4.37,-6.37 -8.44,-8.66 -4.08,-2.29 -9.16,-3.43 -15.17,-3.43 -4.65,0 -8.87,0.79 -12.66,2.29 -3.79,1.5 -6.8,3.44 -9.02,5.8 -2.29,2.36 -4.86,6.94 -7.8,13.74 -3.79,8.59 -8.3,14.74 -13.52,18.53 -5.22,3.72 -11.45,5.58 -18.53,5.58 -8.95,0 -16.32,-2.79 -22.04,-8.37 -5.72,-5.58 -8.59,-12.45 -8.59,-20.68 0,-9.3 2.93,-17.6 8.8,-24.83 7.87,-9.66 19.53,-17.53 35.06,-23.68 15.53,-6.08 32.99,-9.16 52.38,-9.16 19.46,0 35.99,3.15 49.66,9.37 13.6,6.3 23.11,13.81 28.48,22.47 5.36,8.73 8.08,22.04 8.08,39.85l0 74.77c0,9.23 0.5,15.1 1.5,17.67 0.93,2.58 3.08,4.87 6.3,6.8 3.22,1.93 6.8,2.93 10.73,2.93 3.94,0 9.23,-1.15 15.81,-3.36l0 41.07c-11.88,3.79 -23.33,5.65 -34.27,5.65 -12.88,0 -23.83,-2.07 -32.99,-6.3 -9.09,-4.22 -16.74,-10.52 -22.9,-18.96 -14.02,9.09 -26.69,15.6 -38.14,19.46 -11.38,3.86 -22.4,5.79 -33.06,5.79 -20.03,0 -36.2,-5.65 -48.58,-16.89 -12.31,-11.23 -18.46,-25.12 -18.46,-41.57 0,-9.37 2.15,-17.96 6.44,-25.76 4.29,-7.8 10.66,-14.67 19.11,-20.54 8.51,-5.87 21.61,-11.02 39.42,-15.6 17.75,-4.51 39.28,-7.8 64.69,-9.73zm0 34.77c-18.39,2.65 -31.41,5.36 -39,8.08 -7.58,2.72 -13.02,6.08 -16.24,10.23 -3.22,4.15 -4.86,8.37 -4.86,12.67 0,5.58 2.07,10.23 6.3,14.02 4.22,3.79 9.95,5.65 17.1,5.65 4.65,0 10.02,-1.22 16.17,-3.58 6.08,-2.36 12.95,-5.87 20.54,-10.45l0 -36.63z"/>
  <path id="2" class="fil0" d="M2071.42 282.23c10.66,0 19.68,3.72 27.19,11.23 7.51,7.44 11.23,16.46 11.23,27.05 0,10.8 -3.72,19.89 -11.23,27.33 -7.51,7.51 -16.53,11.23 -27.19,11.23 -10.66,0 -19.68,-3.72 -27.19,-11.23 -7.51,-7.44 -11.23,-16.46 -11.23,-27.12 0,-10.45 3.86,-19.46 11.52,-27.12 7.73,-7.58 16.67,-11.38 26.9,-11.38zm34.13 93.59l0 154.62c0,7.37 0.43,11.95 1.29,13.6 0.79,1.65 2.29,2.93 4.51,3.87 2.14,0.93 7.01,1.36 14.59,1.36l11.38 0 0 40.36 -129.65 0 0 -40.36 11.09 0c7.23,0 11.88,-0.36 13.88,-1.15 2,-0.79 3.51,-2.07 4.51,-3.86 0.93,-1.79 1.43,-5.44 1.43,-10.88l0 -99.6 -30.91 0 0 -39.5c11.02,-0.57 21.61,-1.72 31.77,-3.58 10.09,-1.79 19.18,-4.01 27.12,-6.51 5.15,-1.65 11.52,-4.44 19.11,-8.37l19.89 0z"/>
  <path id="3" class="fil0" d="M2254.02 375.82l0 27.83c15.81,-10.73 29.41,-18.1 40.64,-21.97 11.3,-3.94 22.82,-5.87 34.63,-5.87 13.6,0 25.62,2.86 35.99,8.59 10.45,5.72 18.1,12.88 22.82,21.46 4.79,8.52 7.16,20.75 7.16,36.49l0 87.01c0,7.44 0.5,12.16 1.57,14.24 1,2.08 2.65,3.65 4.94,4.58 1.65,0.72 6.66,1.07 15.03,1.07l10.23 0 0 40.36 -122.78 0 0 -40.36c9.23,-0.14 14.45,-0.36 15.53,-0.64 3.5,-0.93 5.72,-2.58 6.87,-4.79 1.08,-2.22 1.65,-7.01 1.65,-14.38l0 -76.49c0,-9.87 -1.08,-16.24 -3.15,-19.18 -3.36,-4.86 -8.66,-7.3 -15.96,-7.3 -6.01,0 -12.45,1.29 -19.32,3.94 -6.87,2.65 -16.1,8.09 -27.69,16.32l0 82.71c0,9.02 1,14.6 3,16.67 1.93,2.08 6.73,3.15 14.24,3.15l6.8 0 0 40.36 -121.93 0 0 -40.36 6.08 0c9.59,0 15.53,-0.43 17.82,-1.22 2.29,-0.86 4.08,-2.36 5.22,-4.44 1.22,-2.07 1.79,-6.15 1.79,-12.31l0 -97.1 -30.91 0 0 -40.36c25.04,-3.15 48.51,-9.16 70.34,-18.03l19.39 0z"/>
  <path id="4" class="fil1 str1" d="M1424.23 375.82l0 27.83c12.17,-9.37 24.54,-16.31 37.07,-20.96 12.59,-4.58 25.4,-6.87 38.35,-6.87 8.3,0 16.17,1.22 23.83,3.65 7.58,2.43 13.95,5.65 19.03,9.52 5.15,3.94 9.8,9.23 13.95,15.89 13.6,-10.3 26.54,-17.75 38.99,-22.25 12.45,-4.51 25.05,-6.8 37.92,-6.8 11.16,0 21.32,2 30.41,6.08 9.09,4.01 16.46,9.52 22.11,16.39 5.65,6.94 9.3,14.45 11.02,22.54 1.08,5.01 1.65,12.31 1.65,21.97l0 86.58c0,7.16 0.5,11.73 1.57,13.81 1,2.08 2.79,3.72 5.22,4.79 1.79,0.86 6.8,1.29 15.03,1.29l9.09 0 0 40.36 -121.93 0 0 -40.36c9.09,0 14.74,-0.43 17.17,-1.36 2.36,-0.93 4.08,-2.36 5.22,-4.37 1.08,-2.07 1.65,-6.51 1.65,-13.31l0 -75.92c0,-8.8 -0.57,-14.6 -1.79,-17.46 -1.22,-2.86 -3.51,-5.29 -6.94,-7.37 -3.44,-2 -7.51,-3.01 -12.24,-3.01 -5.51,0 -11.38,1.22 -17.67,3.65 -6.3,2.43 -15.6,7.8 -27.91,16.03l0 81.78c0,8.08 0.57,13.17 1.65,15.24 1.14,2.08 3.08,3.72 5.87,4.79 1.72,0.72 7.23,1.15 16.53,1.29l0 40.36 -115.06 0 0 -40.36c9.59,-0.14 15.38,-0.64 17.53,-1.43 2.07,-0.86 3.72,-2.36 4.79,-4.58 1.14,-2.29 1.72,-7.3 1.72,-15.24l0 -71.48c0,-11.02 -1,-18.32 -2.93,-21.9 -3.08,-5.44 -8.51,-8.16 -16.39,-8.16 -3.94,0 -8.01,0.5 -12.38,1.43 -4.37,1 -8.59,2.5 -12.81,4.58 -2.22,1.15 -7.94,4.79 -17.17,10.88l-4.87 3.15 0 81.5c0,7.8 0.43,12.66 1.29,14.6 0.79,1.93 2.43,3.5 4.86,4.79 2.43,1.22 6.66,1.86 12.67,1.86l5.65 0 0 40.36 -122.36 0 0 -40.36 8.16 0c8.66,0 14.02,-0.43 16.17,-1.36 2.15,-0.93 3.79,-2.5 4.94,-4.79 1.07,-2.29 1.65,-7.3 1.65,-15.1l0 -93.81 -30.91 0 0 -40.36c25.62,-2.43 49.23,-8.44 70.91,-18.03l19.68 0z"/>
  <path id="5" class="fil1 str1" d="M1885.31 462.97l0 -15.38c0,-9.16 -0.79,-15.46 -2.29,-18.89 -1.57,-3.5 -4.37,-6.37 -8.44,-8.66 -4.08,-2.29 -9.16,-3.43 -15.17,-3.43 -4.65,0 -8.87,0.79 -12.66,2.29 -3.79,1.5 -6.8,3.44 -9.02,5.8 -2.29,2.36 -4.86,6.94 -7.8,13.74 -3.79,8.59 -8.3,14.74 -13.52,18.53 -5.22,3.72 -11.45,5.58 -18.53,5.58 -8.95,0 -16.32,-2.79 -22.04,-8.37 -5.72,-5.58 -8.59,-12.45 -8.59,-20.68 0,-9.3 2.93,-17.6 8.8,-24.83 7.87,-9.66 19.53,-17.53 35.06,-23.68 15.53,-6.08 32.99,-9.16 52.38,-9.16 19.46,0 35.99,3.15 49.66,9.37 13.6,6.3 23.11,13.81 28.48,22.47 5.36,8.73 8.08,22.04 8.08,39.85l0 74.77c0,9.23 0.5,15.1 1.5,17.67 0.93,2.58 3.08,4.87 6.3,6.8 3.22,1.93 6.8,2.93 10.73,2.93 3.94,0 9.23,-1.15 15.81,-3.36l0 41.07c-11.88,3.79 -23.33,5.65 -34.27,5.65 -12.88,0 -23.83,-2.07 -32.99,-6.3 -9.09,-4.22 -16.74,-10.52 -22.9,-18.96 -14.02,9.09 -26.69,15.6 -38.14,19.46 -11.38,3.86 -22.4,5.79 -33.06,5.79 -20.03,0 -36.2,-5.65 -48.58,-16.89 -12.31,-11.23 -18.46,-25.12 -18.46,-41.57 0,-9.37 2.15,-17.96 6.44,-25.76 4.29,-7.8 10.66,-14.67 19.11,-20.54 8.51,-5.87 21.61,-11.02 39.42,-15.6 17.75,-4.51 39.28,-7.8 64.69,-9.73zm0 34.77c-18.39,2.65 -31.41,5.36 -39,8.08 -7.58,2.72 -13.02,6.08 -16.24,10.23 -3.22,4.15 -4.86,8.37 -4.86,12.67 0,5.58 2.07,10.23 6.3,14.02 4.22,3.79 9.95,5.65 17.1,5.65 4.65,0 10.02,-1.22 16.17,-3.58 6.08,-2.36 12.95,-5.87 20.54,-10.45l0 -36.63z"/>
  <path id="6" class="fil1 str1" d="M2071.42 282.23c10.66,0 19.68,3.72 27.19,11.23 7.51,7.44 11.23,16.46 11.23,27.05 0,10.8 -3.72,19.89 -11.23,27.33 -7.51,7.51 -16.53,11.23 -27.19,11.23 -10.66,0 -19.68,-3.72 -27.19,-11.23 -7.51,-7.44 -11.23,-16.46 -11.23,-27.12 0,-10.45 3.86,-19.46 11.52,-27.12 7.73,-7.58 16.67,-11.38 26.9,-11.38zm34.13 93.59l0 154.62c0,7.37 0.43,11.95 1.29,13.6 0.79,1.65 2.29,2.93 4.51,3.87 2.14,0.93 7.01,1.36 14.59,1.36l11.38 0 0 40.36 -129.65 0 0 -40.36 11.09 0c7.23,0 11.88,-0.36 13.88,-1.15 2,-0.79 3.51,-2.07 4.51,-3.86 0.93,-1.79 1.43,-5.44 1.43,-10.88l0 -99.6 -30.91 0 0 -39.5c11.02,-0.57 21.61,-1.72 31.77,-3.58 10.09,-1.79 19.18,-4.01 27.12,-6.51 5.15,-1.65 11.52,-4.44 19.11,-8.37l19.89 0z"/>
  <path id="7" class="fil1 str1" d="M2254.02 375.82l0 27.83c15.81,-10.73 29.41,-18.1 40.64,-21.97 11.3,-3.94 22.82,-5.87 34.63,-5.87 13.6,0 25.62,2.86 35.99,8.59 10.45,5.72 18.1,12.88 22.82,21.46 4.79,8.52 7.16,20.75 7.16,36.49l0 87.01c0,7.44 0.5,12.16 1.57,14.24 1,2.08 2.65,3.65 4.94,4.58 1.65,0.72 6.66,1.07 15.03,1.07l10.23 0 0 40.36 -122.78 0 0 -40.36c9.23,-0.14 14.45,-0.36 15.53,-0.64 3.5,-0.93 5.72,-2.58 6.87,-4.79 1.08,-2.22 1.65,-7.01 1.65,-14.38l0 -76.49c0,-9.87 -1.08,-16.24 -3.15,-19.18 -3.36,-4.86 -8.66,-7.3 -15.96,-7.3 -6.01,0 -12.45,1.29 -19.32,3.94 -6.87,2.65 -16.1,8.09 -27.69,16.32l0 82.71c0,9.02 1,14.6 3,16.67 1.93,2.08 6.73,3.15 14.24,3.15l6.8 0 0 40.36 -121.93 0 0 -40.36 6.08 0c9.59,0 15.53,-0.43 17.82,-1.22 2.29,-0.86 4.08,-2.36 5.22,-4.44 1.22,-2.07 1.79,-6.15 1.79,-12.31l0 -97.1 -30.91 0 0 -40.36c25.04,-3.15 48.51,-9.16 70.34,-18.03l19.39 0z"/>
 </g>
</svg>
