<?xml version="1.0" encoding="UTF-8"?>
<!DOCTYPE svg PUBLIC "-//W3C//DTD SVG 1.1//EN" "http://www.w3.org/Graphics/SVG/1.1/DTD/svg11.dtd">
<!-- Creator: CorelDRAW 2020 (64-Bit) -->
<svg xmlns="http://www.w3.org/2000/svg" xml:space="preserve" width="5.2915mm" height="5.2904mm" version="1.1" style="shape-rendering:geometricPrecision; text-rendering:geometricPrecision; image-rendering:optimizeQuality; fill-rule:evenodd; clip-rule:evenodd"
viewBox="0 0 26.37 26.36"
 xmlns:xlink="http://www.w3.org/1999/xlink"
 xmlns:xodm="http://www.corel.com/coreldraw/odm/2003">
 <defs>
  <style type="text/css">
   <![CDATA[
    .fil2 {fill:#3757A6;fill-rule:nonzero}
    .fil0 {fill:#E61E25;fill-rule:nonzero}
    .fil1 {fill:#F3F4F5;fill-rule:nonzero}
   ]]>
  </style>
 </defs>
 <g id="Слой_x0020_1">
  <metadata id="CorelCorpID_0Corel-Layer"/>
  <path class="fil0" d="M25.62 17.58l-4.27 -1.54c-4.69,1.42 -11.64,1.42 -16.33,0l-4.26 1.54c1.86,5.26 6.85,8.78 12.43,8.78 5.59,0 10.57,-3.52 12.43,-8.78l0 0z"/>
  <path class="fil1" d="M13.19 0c0,0 -0,0 -0,0 -5.61,0 -10.6,3.55 -12.45,8.84l24.9 -0c-1.85,-5.29 -6.84,-8.84 -12.45,-8.84l0 -0z"/>
  <path class="fil2" d="M26.37 13.22l0 -0.03c0,-1.52 -0.26,-2.98 -0.74,-4.34l-24.9 0c-0.48,1.39 -0.73,2.86 -0.73,4.34 0,0 0,0 0,0.01l0 0.03 -0 0.03c0,0 0,0 0,0.01 0,1.48 0.25,2.94 0.73,4.34l24.9 0c0.47,-1.36 0.74,-2.82 0.74,-4.34l-0 -0.03z"/>
 </g>
</svg>
